<svg xmlns="http://www.w3.org/2000/svg" viewBox="0 0 100 100">
  <rect width="100" height="100" rx="20" fill="#6366f1"/>
  <g transform="translate(50,50)">
    <!-- Cat face -->
    <circle cx="0" cy="5" r="28" fill="#fef3c7"/>
    <!-- Left ear -->
    <path d="M-25,-15 L-30,-35 L-12,-20 Z" fill="#fef3c7"/>
    <path d="M-24,-18 L-27,-32 L-15,-22 Z" fill="#fde68a"/>
    <!-- Right ear -->
    <path d="M25,-15 L30,-35 L12,-20 Z" fill="#fef3c7"/>
    <path d="M24,-18 L27,-32 L15,-22 Z" fill="#fde68a"/>
    <!-- Eyes -->
    <ellipse cx="-10" cy="0" rx="5" ry="6" fill="#1e293b"/>
    <ellipse cx="10" cy="0" rx="5" ry="6" fill="#1e293b"/>
    <circle cx="-8" cy="-2" r="2" fill="white"/>
    <circle cx="12" cy="-2" r="2" fill="white"/>
    <!-- Nose -->
    <path d="M0,8 L-4,14 L4,14 Z" fill="#f472b6"/>
    <!-- Mouth -->
    <path d="M0,14 Q-8,20 -12,16" stroke="#1e293b" stroke-width="1.5" fill="none"/>
    <path d="M0,14 Q8,20 12,16" stroke="#1e293b" stroke-width="1.5" fill="none"/>
    <!-- Whiskers -->
    <line x1="-15" y1="10" x2="-32" y2="6" stroke="#1e293b" stroke-width="1"/>
    <line x1="-15" y1="14" x2="-32" y2="14" stroke="#1e293b" stroke-width="1"/>
    <line x1="-15" y1="18" x2="-32" y2="22" stroke="#1e293b" stroke-width="1"/>
    <line x1="15" y1="10" x2="32" y2="6" stroke="#1e293b" stroke-width="1"/>
    <line x1="15" y1="14" x2="32" y2="14" stroke="#1e293b" stroke-width="1"/>
    <line x1="15" y1="18" x2="32" y2="22" stroke="#1e293b" stroke-width="1"/>
  </g>
</svg>
